<svg width="500" height="500" viewBox="0 0 500 500" fill="none" xmlns="http://www.w3.org/2000/svg">
<path d="M375 180.179H365.112C361.441 180.179 356.25 185.477 356.25 188.868V311.797C356.25 315.192 361.441 319.821 365.112 319.821H375V349H285.417V319.821H304.167V190.6H303.248L259.463 349H225.564L182.344 190.6H181.25V319.821H200V349H125V319.821H134.604C138.559 319.821 143.75 315.192 143.75 311.797V188.867C143.75 185.476 138.559 180.178 134.604 180.178H125V151H218.783L249.574 265.631H250.424L281.497 151H375V180.179Z" fill="#1A1918"/>
</svg>
